<svg xmlns="http://www.w3.org/2000/svg" version="1.1" xlink="http://www.w3.org/1999/xlink" xmlns:svgjs="http://svgjs.com/svgjs" width="100%" height="100%" preserveAspectRatio="xMidYMid meet" viewBox="0.000005699490884580882 0.0000321729457937181 140.22569274902344 146.99996948242188" overflow="visible"><defs id="SvgjsDefs20927"></defs><g id="SvgjsG20928" transform="scale(0.515970515970516)" opacity="1"><g id="SvgjsG20929" class="SjXMbZvkX" transform="translate(-0.18377468116615306, -0.047188914880303155) scale(0.9762146064870626)" stroke="#000000" stroke-width="2.795714846752836px" light-content="false" non-strokable="false" fill="#aaaaaa"><path d="M70.9 36.3c-.7.4-1.1.7-2.2 1.4-.1.1 1.6-1.1 2.2-1.4zM52.4 49.7c1.5-1.3 2.6-2.3 3.3-2.9-1.2 1-2.8 2.5-3.3 2.9zM41.5 62.3c.2-.2.3-.4.5-.6-.2.2-.4.4-.5.6zm5.7-6c-.9.8-1.9 1.9-2.9 2.9-.8.8-1.6 1.7-2.4 2.5.6-.6 1.3-1.4 2.1-2.3 1.3-1.1 2.4-2.4 3.2-3.1zm-7.9 7.6c-.3.4-1.5 1.6-2.4 2.8-.9 1.2-1.7 2.2-1.6 2 .5-.7 1.1-1.5 1.8-2.3.6-.8 1.3-1.6 2-2.3 1.3-1.5 2.6-3 3.5-4-.7.7-1.3 1.4-2 2.1-.3.6-.8 1.1-1.3 1.7zm-23.8 41.9c-.1.4-.3.9-.5 1.4.2-.5.4-1 .5-1.4zm0 0c.1-.2.1-.4.2-.5-.1.2-.1.4-.2.5zm-.7 2.1c-.1.2-.1.4-.2.5.1-.1.1-.3.2-.5zm.5-3.5c-.5 1.3-1.6 4.7-1.3 3.8.4-1 1-2.9 1.3-3.8zm-1.2 3.3c-.1.4-.2.7-.3 1 .1-.3.2-.7.3-1zm0 0c.2-.6.4-1.2.6-1.7-.2.3-.4 1-.6 1.7zm-.8 2.4c.1-.3.2-.6.3-.8-.2.3-.3.6-.3.8zm.6 1c.3-1 .8-2.3.8-2.4-.3.8-.8 2.2-.8 2.4zm.2-1c-.1.3-.2.7-.4 1.3.1-.4.2-.8.4-1.3zm-.5 1.3c-.6 2-1 3.6-1.6 5.6.5-1.4 1.2-3.9 1.6-5.6zm-1.6 2.9c.2-.6.3-1.1.5-1.7-.1.6-.3 1.2-.5 1.7zm0 0c-.3.9-.5 1.8-.7 2.4.2-.7.5-1.5.7-2.4zm-3.7 33.3c-.1 4.1-.1 3 0 0zm5.9-38.4c.3-1 .3-.9.6-1.7.2-.6-.5 1.4-.5 1.3.2-.6 1-3.2 1.3-3.8-.5 1.3-1.1 3.4-1.9 5.6.2-.5.4-1.1.6-1.8 0 .1-.1.5-.1.4zm-.6 1.8c0 .1-.1.2-.1.3.1-.2.1-.4.2-.6 0 .1 0 .2-.1.3zm-.5 0c-.1.1-.1.3 0 0-.2.7-.4 1.6-.5 1.7 0-.2.5-1.6.5-1.7zm.1-.6c-.1.2-.1.3-.2.5.6-1.6.5-1.2.2-.5zm-.1.5c0 .1 0 .1 0 0z"></path><path d="M11.8 115.4c.2-.8.4-1.6.6-2.3-.1.6-.3 1.4-.6 2.3zm38.3-61.5l.2-.2c-.2.1-.2.2-.2.2zM75 45.8c1.1.5 2.4.9 4 .8 1.6-.1 3.2-.3 4.4-.4 1.1-.3 1.9-.4 2.6-.7 2-.8 3.9-1.7 5-3.1.3-.4.4-.6-.1-.8-1.2-.4-2.4-.7-3.6-1.1-.3-.1-.6-.1-.9-.1-1.9 0-3.9 0-5.8.7-1.2.4-2.6.7-3.5 1.3-1 .7-2.5 1.3-2.9 2.2 0 .1.5 1 .8 1.2zM20 65.3c.2.4 1.2.9 1.5.7.4-.3.9-.5 1.2-1 .4-.6.8-1.4 1.2-2.2.5-1.1 1-2.2 1.4-3.3.5-1.2.7-4.6.7-5-.1-1.4.1-4-.4-4.2-.5-.1-3 2.7-4.1 5-1.2 2.6-2.2 5.1-1.8 7.9v.2c-.5 1.1.1 1.4.3 1.9z"></path><path d="M278.2 175.7c-.5-2.4-.6-5.3-1.7-7.1-1.2-2.1-2-4.8-4.2-6.1v-.1c.1-1.3.2-2.5.3-3.7.1-1.5.2-3 .2-4.5s.1-3 .1-4.6c0-2.7-.1-5.4-.3-8.1 1.9-3.1 3.7-7.2 4.1-10.5.7-6.6 1-13.1-4-18.4-.1-.1-.3-.2-.3-.3.3-2.7-2.1-2.9-3.7-3.7-.5-.3-1.6-.4-2.7-.4-.2-.5-.4-1.1-.5-1.6l-.7-2.1c-.3-.7-.5-1.4-.8-2.1-.5-1.4-1.1-2.7-1.6-4.1-.6-1.3-1.2-2.6-1.7-3.8-1-2.2-2.1-4.3-3.2-6.5-1.8-3.3-3.9-7-6.3-10.6.6.4 1.2.8 1.7 1.2 1.9 1.2 3.9 2.2 5.8 3.2 2.1 1.1 6.5-.3 6.5-.3s2 .3 2.9-.1c2.7-1.1 7.6-1.2 8.2-3.9.7-2.7-4-9.3-8-11.7-4.5-2.7-9.1-5-14.6-2-.1.1-.3.2-.3.1-1.9-1.1-2.8 1-3.9 2.2-.9.9-2.1 4.7-1.9 5.7.1.3.2.7.3 1.1-.3-.4-.6-.9-.9-1.3-1.3-1.8-2.7-3.4-3.9-5.1-5.7-7-12.2-13.5-19.4-19.4-1.9-5.1-4.9-9.7-9.3-13.6-1.3-1.2-2.4-1.8-3.8-1.5-1.4.4-5.5.8-6 1.7-.1.1-.1.2-.2.4-.4-.2-.8-.5-1.2-.7-1.8-1-3.6-1.9-5.4-2.8.8-.5 1.7-1.1 1.6-1.6-.2-.7-2.9-1.6-4.8-1.6-1.1 0-2.1.1-3.1.3-4.3-1.8-8.7-3.4-13.2-4.8.7-.6 1.4-1.2 2-2 .7-.9 1-1.4 0-2.1-2.2-1.6-4.3-3.1-6.6-4.6-.5-.3-1.1-.5-1.7-.6-3.7-.8-7.4-1.7-11.3-.9-2.4.5-5.3.6-7.1 1.7-1.7 1-3.8 1.7-5.2 3.1-1.3-.1-2.6-.2-3.5-.2-.6 0-2.1-.1-3.2-.1-4.3-.1-9.6.1-14.9.6-1 .1-3.1.4-4.9.6-1.1-.3-2.2-.6-3.1-.7-6.6-.7-13.1-1-18.4 4-.1.1-.2.3-.3.3-2-.2-2.6 1-3.1 2.3-1.1.4-2.2.7-3.3 1.1l-3 1.2c-1 .4-1.9.8-2.9 1.2L85.1 29c-.9.4-1.8.8-2.6 1.2-.9.4-1.7.9-2.6 1.3-1.7.9-3.5 1.8-5.2 2.8-.9.5-3.3 1.8-4.1 2.3 1.3-.8 2.9-1.7 2.8-1.6-1.7.9-3.7 2.2-5.2 3.2.5-.9.9-1.7 1.3-2.6 1.1-2.1-.3-6.5-.3-6.5s.3-2-.1-2.9c-1.1-2.7-1.2-7.6-3.9-8.2-2.7-.7-9.3 4-11.7 8-2.7 4.5-5 9.1-2 14.6.1.1.2.3.1.3-1.1 1.9 1 2.8 2.2 3.9.5.5 1.9 1.1 3.2 1.5-1.5 1.1-2.7 2.2-4.4 3.7-.5.4-1.5 1.3-2.5 2.2-1 1-2.1 2-2.6 2.5-.9.9 1-.9.2-.2l-1.8 1.8c-.6.6-1.1 1.2-1.7 1.8-1.1 1.2-2.2 2.3-3.3 3.5-.5.6-.9 1-1.7 2-.6.7.1-.2-.7.8-.8.9.6-.7.5-.5-1.1 1.3-.9 1.1-1.4 1.7-1.5 1.9-2.5 3.2-3.8 4.9l-.6.9c-4.4 1.9-8.4 4.7-11.9 8.6-1.2 1.3-1.8 2.4-1.5 3.8.4 1.4.8 5.5 1.7 6 .1 0 .2.1.3.1-1.2 2.3-2.3 4.7-3.3 6.8-.6-.9-1.2-1.9-1.8-1.8-.7.2-1.6 2.9-1.6 4.8 0 1.3.1 2.6.6 3.8-.1.4-.3.7-.3.8.1-.3.2-.5.3-.8 0 .1.1.3.2.4-.4 1-.7 1.9-1 2.8-.6 2-1.4 3.9-1.9 6-1 3.5 0-.1.5-1.7.2-.7.2-.7.3-1.1.5-1.3 1.1-3.2 1.7-5 .1-.4.3-.7.4-1.1l.3.6c-1.6 4.4-3 8.9-4.2 13.5-.1-.1-.1-.2-.2-.3.6-2.2 1.1-3.7 1.4-5.1 0 0 0 .2-.1.4.2-.6.3-1.2.5-1.7-.7 2.1-1.3 4.4-1.8 6.4-.1-.1-.1-.2-.2-.4.2-.7.4-1.4.5-1.8-.2.5-.4 1.2-.5 1.8l-.1-.1c.2-.6.3-1.2.5-1.8-.1.6-.3 1.2-.5 1.8-.8-1.2-1.7-2.3-2.8-3.2-.9-.7-1.4-1-2.1 0-1.6 2.2-3.1 4.3-4.6 6.6-.3.5-.5 1.1-.6 1.7-.8 3.7-1.7 7.4-.9 11.3.5 2.4.6 5.3 1.7 7.1 1.3 2.2 2.1 5.2 4.5 6.3.2.1 2.9-.5 3.4-1 1.9-2 3.4-4.4 3.9-7.4s.8-6.1 1.1-8.6c-.2-2.2-.2-3.9-.6-5.3-.7-2.3-1.4-4.5-2.5-6.5 1.2-4.7 2.6-9.2 4.2-13.5.2.3.4.6.7.9l.1.1c0 .9.7.9 1.1 1.1.4.2 1.5 0 1.7-.2.3-.3.6-.7.7-1.2.1-.6.2-1.2.1-1.8 0-.9-.1-1.8-.1-2.6-.1-.9-1.1-2.4-1.1-2.4s-.2-.5-.3-.9c.7-1.7 1.5-3.4 2.3-5-.8 1.7-1.6 3.3-2.3 5 0-.1-.1-.1-.1-.2-.1-.2-.3-.4-.5-.6 1.1-2.4 2.1-4.7 3.2-6.8.1 0 .2.1.3.1-1.1 2.2-2.2 4.5-3.2 6.8 1-2.2 2.1-4.5 3.3-6.8.2.1.3.1.5.2-.4.8-.8 1.5-1.1 2.3.4-.8.8-1.5 1.1-2.3.3.1.5.2.8.3 2.9.9 6.2 1.3 9.9-.9 2.6-1.6 5.2-3 7.7-5.2 5.6-5 10-10.3 14.6-15.7.5-.6 1.6-1.3 1.6-2.2 0-.9-1.8.1-2.6.2-3.9.6-7.8 1.3-11.7 1.9-2.8.5-5.5 1.2-8 2.1.7-1 1.5-2 2.4-3 .8-1.1 1.7-2.1 2.5-3 .8-.9 1.5-1.8 2.2-2.5-.3.4-.9 1.1-1.8 2.2-.9 1-2 2.3-3.1 3.8 1.2-1.6 2.4-2.9 3.6-4.3.6-.7 1.2-1.3 1.7-2 .6-.6 1.2-1.2 1.7-1.8.9-1 2.1-2.3 3.3-3.5 1.2-1.1 2.3-2.2 2.8-2.6l.1-.1c.1-.1 1.6-1.5 1.8-1.6 1.1-1 .9-.8 2.2-1.9 1.7-1.4 1.6-1.4 2.7-2.3.6-.5 1.2-1 1.8-1.4.4.1.7.1.9 0 1.4-.3 2.9-.7 3.8-1.5 1.3-1 2.2-2.4 3-3.7.2-.3.3-.5.5-.8 2.8-1.9 5.8-3.7 8.8-5.3.3-.2.9-.5 1.3-.8.5-.2.8-.4.9-.5.6-.3.2-.1.9-.5.5-.2.3-.2 1-.5 2.6-1.4 5.7-2.8 8.4-4 1.7-.7 3.5-1.4 5.4-2.1.9-.4 1.8-.7 2.8-1-.4 1.6-.3 5 .4 5.8 1 1.2 2.1 2.5 3.5 3.1 1.8.8 3.8 1.1 5.8 1.4 2.8.4 5.6.5 8.4.7 3 .2 10.3-3.5 11.2-4.3 2.8-2.2 8.4-5.2 8.2-7.1-.2-1.3-4.1-4.1-8.5-6.1.4-.1.9-.1 1.3-.2 5.4-.4 11-.8 16.6-.6.8 0 .2 0 1.4.1 1.5.1 1.2 0 2.6.1h.5c0 .6.6 2.8 1 3.2 2 1.9 4.4 3.4 7.4 3.9s6.1.8 8.6 1.1c2.2-.2 3.9-.2 5.3-.6 2.4-.7 4.7-1.5 6.7-2.6 3.6 1.1 7.1 2.3 10.6 3.6.8.3 1.5.6 2.3.9-.2.1-.3.3-.5.4l-.1.1c-.9 0-.9.7-1.1 1.1-.2.4 0 1.5.2 1.7.3.3.7.6 1.2.7.6.1 1.2.2 1.8.1.9 0 1.8-.1 2.6-.1.9-.1 2.4-1.1 2.4-1.1h.1c2.7 1.3 5.3 2.6 7.8 4-.8 2.9-1.3 6.2.9 9.8 1.6 2.6 3 5.2 5.2 7.7 5 5.6 10.3 10 15.7 14.6.6.5 1.3 1.6 2.2 1.6s-.1-1.8-.2-2.6c-.6-3.9-1.3-7.8-1.9-11.7-.3-1.7-.6-3.3-1.1-4.8 4.9 4.2 9.4 8.6 13.3 13 .9 1 1.8 2.1 2.7 3.1.9 1 1.7 2.1 2.5 3.1 1.7 2 3.1 4.1 4.6 6.2.8 1 1.4 2.1 2.1 3.1l2 3.2c.7 1.1 1.3 2.2 1.9 3.3.6 1.1 1.3 2.2 1.9 3.4.8 1.7 1.7 3.4 2.6 5.1.8 1.7 1.6 3.5 2.4 5.2.7 1.7 1.4 3.5 2 5.1.6 1.5 1.1 3 1.6 4.4-.8.1-1.5.3-1.8.5-1.2 1-2.5 2.1-3.1 3.5-.8 1.8-1.1 3.8-1.4 5.8-.4 2.8-.5 5.6-.7 8.4-.2 3 3.5 10.3 4.3 11.2 2.2 2.8 5.2 8.4 7.1 8.2.5-.1 1.3-.8 2.3-2v1.6c0 1.4.1 2.8.1 4.2 0 1.6-.1 3.1-.1 4.7l-.1 2.3c0 .8-.1 1.6-.2 2.3-.1 1.1-.2 2.3-.3 3.4-.8.2-1.7.5-2 .8-1.9 2-3.4 4.4-3.9 7.4s-.8 6.1-1.1 8.6c.2 2.2.2 3.9.6 5.3.4 1.3.8 2.6 1.3 3.9-1.5 4.7-3.2 9.5-5.2 14-.5-.1-1.2.1-1.4.3-.3.3-.6.7-.7 1.2-.1.6-.2 1.2-.1 1.8 0 .5 0 1 .1 1.5-1.6 3.3-3.4 6.7-5.4 10.1-.1.2-.3.4-.4.7-2.1-.2-4.4.1-6.8 1.5-2.6 1.6-5.2 3-7.7 5.2-5.6 5-10 10.3-14.6 15.7-.5.6-1.6 1.3-1.6 2.2 0 .9 1.8-.1 2.6-.2 3.6-.6 7.2-1.2 10.8-1.7-1.2 1.3-2.4 2.5-3.7 3.8-.6.5-1 .9-1.6 1.5-7.8 7.5-17.6 14.3-25.5 18.8.1-.1.1-.2.2-.3 0-.1-.4-1-.8-1.2-1.1-.5-2.4-.9-4-.8-1.6.1-3.2.3-4.4.4-1.1.3-1.9.4-2.6.7-2 .8-3.9 1.7-5 3.1-.3.4-.4.6.1.8 1.2.4 2.4.7 3.6 1.1.3.1.6.1.9.1 1.9 0 3.9 0 5.8-.7h.1c-1.3.7-2.7 1.3-4.1 1.9-3.2 1.5-6.2 2.6-9.3 3.9-1 .3-2 .7-3 1-.5.2-.9.3-1.4.5-.5-.5-1.1-.9-1.7-1.2-1.8-.8-3.8-1.1-5.8-1.4-2.8-.4-5.6-.5-8.4-.7-3-.2-10.3 3.5-11.2 4.3-1.9 1.5-5.3 3.5-7.1 5.2h-.8c-1.6 0-3.2.1-4.7.1-1.6.1-3.1 0-4.5-.1-2.3-.1-4.5-.2-6.8-.4.8-1.2 1.6-2.5 1.4-3.9 0-.2-1.5-1.7-2-1.9-2.1-.5-4.2-.6-6.5.3-2.2.9-4.4 1.9-6.2 2.7-.5.3-.9.6-1.3.9-2.5-.5-5-1-7.5-1.6-1.6-.4-3.1-.9-4.7-1.3-.8-.2-1.5-.4-2.3-.7-.8-.3-1.5-.5-2.3-.8-1.6-.6-3.5-1.1-5.3-1.9l-.9-.3c.1-.5 0-1.3-.3-1.5-.3-.3-.7-.6-1.2-.7-.6-.1-1.2-.2-1.8-.1-.7 0-1.4.1-2.1.1-3.4-1.5-6.8-3.2-10.2-5.1.4-2.3.2-4.8-1.4-7.5-1.6-2.6-3-5.2-5.2-7.7-5-5.6-10.3-10-15.7-14.6-.6-.5-1.3-1.6-2.2-1.6-.9 0 .1 1.8.2 2.6.6 3.9 1.3 7.8 1.9 11.7.1.6.2 1.2.3 1.7-.9-.7-1.8-1.5-2.8-2.4-1.9-1.8-1.6-1.6-2.4-2.4-.8-.8-1.7-1.6-2.5-2.4-.8-.8-1.6-1.6-2.3-2.4-1.9-1.9-3-3.5-5.4-6.1-1-1.2-2.1-2.6-3.2-3.9-1.3-1.5-2.3-3.1-3.4-4.6-.5-.8-1.1-1.5-1.6-2.3-.5-.8-1-1.6-1.6-2.5-.5-.7-.9-1.5-1.4-2.2-.5-.7-.9-1.5-1.3-2.2-.8-1.5-1.8-3-2.6-4.6-1.2-2.4-1.6-3.2-2.5-4.8-1.1-2.4-2.1-4.6-2.9-6.5-.8-1.9-1.4-3.4-1.8-4.5-.1-.4-.3-.8-.4-1.2.5-.1.9-.2 1.1-.4 1.2-1 2.5-2.1 3.1-3.5.8-1.8 1.1-3.8 1.4-5.8.4-2.8.5-5.6.7-8.4.2-3-3.5-10.3-4.3-11.2-2.2-2.8-5.2-8.4-7.1-8.2-.6.1-1.6 1.1-2.7 2.5-.1-.6-.2-1.3-.3-2.6-.1-.7-.1-2.4-.1-3-.1-2-.2-.2-.3-4v.7c-.2-.1-.2 1.4-.4.5 0 2.6-.1 2-.1 4-.1 1.2.1 3.7.2 5.3v.7c-1.9 3.1-3.9 7.3-4.3 10.7-.7 6.6-1 13.1 4 18.4.1.1.3.2.3.3-.3 2.7 2.1 2.9 3.7 3.7.6.3 1.8.4 3 .4.3.7.5 1.5.8 2.2.3.7.9 2.2 1.2 3 2.3 5.7 6.5 14.2 8.2 17 .6 1 .5.9 1.1 1.9.3.6 2.1 3.4 3.6 5.8.6.8 1.6 2.2 2.8 3.9.9 1.3 1.9 2.5 2.8 3.7.9 1.2 1.8 2.4 2.8 3.5.9 1 1.8 2.1 2.7 3.1.6.7 1.3 1.5 2.2 2.4.9.9 1.8 1.9 2.7 2.8 1.9 1.9 3.8 3.6 4.8 4.7 1.8 1.6 2.4 2.2 3.8 3.4.7.6 1.3 1.1 1.6 1.4 1.8 6.1 5.1 11.5 10.2 16.1 1.3 1.2 2.4 1.8 3.8 1.5 1.4-.4 5.5-.8 6-1.7.3-.6.6-1.2.8-1.9 0-.1 0-.1.1-.2 1 .6 2 1 3 1.6 1.2.6 2.3 1.2 3.4 1.7.5.2 1.1.5 1.6.7-.1.1-.2.1-.2.1s-.8.2-1.1.5c-.8.7-2.6 1.5-2.4 2.2.2.7 2.9 1.6 4.8 1.6 2-.1 3.9-.2 5.4-1.6.6.2 1.2.5 1.8.7 1.6.7 3.8 1.3 5.9 2.1 1.8.6 3.5 1.1 5.2 1.6 1.6.5 3.2.9 4.7 1.2 1.7.4 3.3.8 4.8 1.1-2.2 2.4-4.4 4.9-4.8 8-.1.8-.1 1.3.8 1.4 2 .2 4.1.4 6.2.5.4 0 .9-.1 1.4-.3 2.8-.9 5.6-1.8 7.9-3.9 1.3-1.2 3-2.3 3.9-3.6.4 0 .7 0 1.1.1 1.6.1 3.2.3 4.7.3 1.1 0 2 0 2.9.1 1.2 0 2 .1 3.3.1 1.3 0 2.7-.1 4.1-.1h.9c.4 1.9 8.9 7.3 14.8 7.9 6.6.7 13.1 1 18.4-4 .1-.1.2-.3.3-.3 2.7.3 2.9-2.1 3.7-3.7.6-1.2.5-5.4-.2-6.2-.1-.1-.2-.3-.3-.4.8-.3 1.6-.5 2.5-.8 1.2-.4 2.2-.8 3.2-1.2 1-.4 2.1-.8 3.3-1.3.5-.2.5-.2 1.4-.6 1.2-.5 2.4-1.1 3.6-1.6.6-.3 1.2-.6 1.8-.8l1.8-.9c1.2-.6 2.4-1.2 3.6-1.9 1.2-.6 2.3-1.3 3.5-2 .2-.1.4-.2.6-.4 1.6-.9 3.3-2 5-3.1.8-.5 1.7-1.1 2.5-1.7.8-.6 1.7-1.2 2.5-1.8.8-.6 1.6-1.2 2.4-1.7.8-.6 1.5-1.2 2.2-1.7 1.4-1.1 2.8-2.1 3.8-3.1 1.7-1.5 3.6-3 5.4-4.8.9-.9 1.9-1.8 2.9-2.7.9-1 1.9-2 2.8-3l1.5-1.5c7.4-1.6 14-5 19.5-11 1.2-1.3 1.8-2.4 1.5-3.8-.4-1.4-.8-5.5-1.7-6-.6-.3-1.2-.6-1.9-.8l-1.2-.3c.9-1.6 1.9-3.2 2.8-4.9.6-1.1 1.2-2.3 1.8-3.5.3.5.5.8.5.8s.2.8.5 1.1c.7.8 1.5 2.6 2.2 2.4.7-.2 1.6-2.9 1.6-4.8-.1-2.1-.2-4.1-1.8-5.7.6-1.5 1.3-2.9 1.8-4.4.5-1.2 1-2.4 1.4-3.6l1.2-3.6c.1-.4.3-.8.4-1.1.9 1.6 1.9 3.1 3.4 4.2.9.7 1.4 1 2.1 0 1.6-2.2 3.1-4.3 4.6-6.6.3-.5.5-1.1.6-1.7.6-3.7 1.5-7.4.6-11.3zM51.5 51.4c.5-.4.3-.2-.3.3-1.5 1.3-2.3 2.2-3.2 2.9-.8.8-1.7 1.6-3.1 3.1l.5-.5c-.9.9-1.1 1.2-1.8 1.8 2.1-2.2 1.9-2 1.2-1.2-3.9 3.9-8 8.8-11.3 13.2-.1 0-.1.1-.2.1 1.1-1.5 2.3-2.9 3.4-4.3.7-.9 1-1.2 1.6-1.9.5-.6 1.3-1.6 1.9-2.2.6-.7.7-.8 1.2-1.3 1.1-1.2 2-2.1 3.2-3.5 1-1.1 2.1-2.2 3.3-3.2 1.2-1.1 2.3-2.2 3.6-3.3zM47.4 55c0-.1-.1 0-.3.2.5-.6 1.8-1.7.3-.2zm-7.8 8.1c1.1-1.3 1.6-1.9 2.2-2.5 2.4-2.5 2.9-3.1 4.8-4.9-.5.5.4-.3.2-.1-1.1 1-2.3 2.4-3.5 3.6-.6.6-1.2 1.2-1.7 1.8-.5.5-.9 1.1-1.3 1.5-.4.4.4-.4-.2.4-.8 1-1.9 2.1-3.3 3.8-.2-.2 2.7-3.5 2.8-3.6zm-2.4 3c.6-.7-.4.5.2-.3 1.2-1.4 2.1-2.5 3.6-4.1.4-.5 1.5-1.5 1-.9-2.2 2.4-4.7 5.4-7.2 8.6-.5.6-1 1.3-1.5 2h-.1c1.3-1.9 2.6-3.6 4-5.3zm11.4-11.4c-3.9 3.6-7.6 7.7-10.9 11.7-.7 1-.1.2.5-.4 3.2-3.8 6.2-7.2 10.1-10.8.7-.6.7-.6.2 0l-1.2 1.2c-.5.5-1.2 1.1-1.8 1.9-1.1 1.2-2.6 2.6-3.9 4.2-1.4 1.6-2.9 3.2-4.2 4.9-.9 1.2-1.8 2.3-2.7 3.4l-.9.3c2.2-3 4.8-6.1 6.7-8.3.5-.5 1-1.1 1.4-1.6l1.5-1.5c.9-.9 1.7-1.8 2.6-2.7.9-.9 1.7-1.7 2.6-2.5.8-.8 1.7-1.6 2.5-2.3.8-.7 1.7-1.4 2.5-2.2.8-.7 1.7-1.5 2.5-2.1.6-.5 1.2-.9 1.8-1.4h.1c-3 2.4-6.2 5.1-9.4 8.2zm210 189.2c-.2-.4-1.2-.9-1.5-.7-.4.3-.9.5-1.2 1-.4.6-.8 1.4-1.2 2.2-.5 1.1-1 2.2-1.4 3.3-.5 1.2-.7 4.6-.7 5 .1 1.4-.1 4 .4 4.2.5.1 3-2.7 4.1-5 1.2-2.6 2.2-5.1 1.8-7.9v-.2c.5-1.1-.1-1.4-.3-1.9zM227 268.2c1.1-1.9-1-2.8-2.2-3.9-.9-.9-4.7-2.1-5.7-1.9-1.4.3-2.9.7-3.8 1.5-1.3 1-2.2 2.4-3 3.7-1.2 1.9-2.2 3.9-3.2 5.8-1.1 2.1.3 6.5.3 6.5s-.3 2 .1 2.9c1.1 2.7 1.2 7.6 3.9 8.2 2.7.7 9.3-4 11.7-8 2.7-4.5 5-9.1 2-14.6 0 0-.1-.1-.1-.2z"></path><path d="M252.1 103.3c.4.3.6.4.8-.1.4-1.2.7-2.4 1.1-3.6.1-.3.1-.6.1-.9 0-1.9 0-3.9-.7-5.8-.4-1.2-.7-2.6-1.3-3.5-.7-1-1.3-2.5-2.2-2.9-.1 0-1 .4-1.2.8-.5 1.1-.9 2.4-.8 4 .1 1.6.3 3.2.4 4.4.3 1.1.4 1.9.7 2.6.8 2 1.6 4 3.1 5zm-118.4-94c.5.1 1 .2 1.6 0 .7-.2 1.5-.5 2.3-.8 1.1-.5 2.2-1 3.2-1.6 1.1-.6 3.5-3 3.8-3.3.8-1.1 2.7-3 2.4-3.4s-4 0-6.3 1.1c-2.6 1.2-5 2.4-6.6 4.8l-.1.1c-1.1.5-.9 1.1-1 1.7-.1.3.3 1.3.7 1.4zm104.5 46.5c.3.9 1.8 1.9 1.8 1.9s.5.7.8.9c.9.6 2.2 2 2.8 1.6.7-.4.7-3.3.1-5.1-.7-2-1.4-3.9-3.4-4.9 0 0-.1 0-.1-.1-.3-.8-.9-.6-1.4-.7-.4-.1-1.4.4-1.5.7-.2.4-.3.9-.3 1.3 0 .6.2 1.2.4 1.8.2.9.5 1.8.8 2.6zm-210.6 158c.7 1 1.3 2.5 2.2 2.9.1 0 1-.4 1.2-.8.5-1.1.9-2.4.8-4-.1-1.6-.3-3.2-.4-4.4-.3-1.1-.4-1.9-.7-2.6-.8-2-1.7-3.9-3.1-5-.4-.3-.6-.4-.8.1-.4 1.2-.7 2.4-1.1 3.6-.1.3-.1.6-.1.9 0 1.9 0 3.9.7 5.8.4 1.2.7 2.6 1.3 3.5zm22.6 54.4c-.6-.4-1.4-.8-2.2-1.2-1.1-.5-2.2-1-3.3-1.4-1.2-.5-4.6-.7-5-.7-1.4.1-4-.1-4.2.4-.1.5 2.7 3 5 4.1 2.6 1.2 5.1 2.2 7.9 1.8h.2c1.1.5 1.4-.1 1.9-.3.4-.2.9-1.2.7-1.5-.3-.4-.5-.9-1-1.2zm-19.8-40.6c-1-1.3-2.4-2.2-3.7-3-1.9-1.2-3.9-2.2-5.8-3.2-2.1-1.1-6.5.3-6.5.3s-2-.3-2.9.1c-2.7 1.1-7.6 1.2-8.2 3.9-.7 2.7 4 9.3 8 11.7 4.5 2.7 9.1 5 14.6 2 .1-.1.3-.2.3-.1 1.9 1.1 2.8-1 3.9-2.2.9-.9 2.1-4.7 1.9-5.7-.4-1.3-.8-2.8-1.6-3.8z"></path></g><g id="SvgjsG20930" class="FPs3fdM6PG" transform="translate(30.91101304407696, 22.698598843704964) scale(2.4109956177134886)" light-content="false" non-strokable="false" fill="#0f0f0f"><path d="M61.457 59.574c.063.082.105.188.168.281l2.293-1.043a4.247 4.247 0 0 1 5.207 1.406l2.219-1.187a4.16 4.16 0 0 1 5.207 1.043l.574-.219a4.657 4.657 0 0 1 5.879 2.367 4.661 4.661 0 0 1-1.93 6.04L53.125 83.885a14.084 14.084 0 0 0-5.137 4.915l-1.418 2.293h.004a1.038 1.038 0 0 1-.886.488A1.04 1.04 0 0 1 44.793 90l1.418-2.293h-.004a16.213 16.213 0 0 1 5.875-5.645L80.02 66.52a2.572 2.572 0 0 0 1.219-1.554A2.593 2.593 0 0 0 81.001 63a2.584 2.584 0 0 0-3.125-1.125l-.512.2c.086.476.086.968 0 1.444a4.16 4.16 0 0 1-1.926 2.711l-12.312 7.293v-.004a.984.984 0 0 1-.531.149 1.041 1.041 0 1 1-.531-1.938l12.3-7.293a2.08 2.08 0 0 0 .962-1.344 2.093 2.093 0 0 0-.817-1.992 2.091 2.091 0 0 0-2.144-.207l-2.469 1.313a4.163 4.163 0 0 1-2.082 4.261l-12.5 7.106a1.046 1.046 0 0 1-1.043-1.813l12.5-7.105c.531-.3.91-.809 1.047-1.402a2.184 2.184 0 0 0-.317-1.723 2.173 2.173 0 0 0-2.687-.77l-2.45 1.043V61.8c.071.434.071.872 0 1.305a4.406 4.406 0 0 1-2.081 2.957l-10.48 6.043a1.04 1.04 0 0 1-.793.102 1.032 1.032 0 0 1-.633-.489 1.046 1.046 0 0 1 .387-1.418l10.48-6.043-.004.004c.582-.34.992-.914 1.125-1.574a2.33 2.33 0 0 0-3.332-2.55l-13.23 6.53a8.992 8.992 0 0 1-9.863-1.23l-5.938-5.02a3.396 3.396 0 0 0-4.832 4.727l1.363 1.656a1.043 1.043 0 0 1-1.613 1.274l-1.363-1.656h-.004a5.487 5.487 0 0 1 .402-7.395 5.488 5.488 0 0 1 7.402-.242l5.95 5.113h-.004a6.875 6.875 0 0 0 7.562.95l13.148-6.512a4.413 4.413 0 0 1 5.445 1.242zM23.363 86.863a1.07 1.07 0 0 0-.02.8c.102.259.301.466.551.575a1.032 1.032 0 0 0 1.375-.531l3.52-8h.004a8.933 8.933 0 0 0-1.282-9.375 1.066 1.066 0 0 0-.71-.422c-.286-.035-.575.047-.797.23s-.36.45-.375.739c-.02.285.082.566.277.777a6.886 6.886 0 0 1 .98 7.156zm9.969-38c.254.18.402.473.398.781v4.387a1.043 1.043 0 0 0 1.04 1.043h15.136a1.043 1.043 0 0 0 1.043-1.043v-4.363a.953.953 0 0 1 .407-.805 16.671 16.671 0 0 0 6.835-9.09 16.678 16.678 0 0 0-.586-11.355 1.038 1.038 0 0 0-.566-.59 1.023 1.023 0 0 0-.816 0 1.04 1.04 0 0 0-.535 1.402 14.577 14.577 0 0 1-5.5 17.883 3.032 3.032 0 0 0-1.356 2.555v3.324l-13.07-.004v-3.343a3.02 3.02 0 0 0-1.387-2.532 14.402 14.402 0 0 1-5.054-5.57 14.427 14.427 0 0 1-1.57-7.355A14.579 14.579 0 0 1 42.95 20.384a14.592 14.592 0 0 1 10.07 4.667c.183.227.448.364.733.387.29.02.57-.078.782-.273a1.03 1.03 0 0 0 .34-.754c0-.29-.114-.567-.325-.766a16.656 16.656 0 0 0-12.695-5.66 16.662 16.662 0 0 0-12.574 5.933 16.674 16.674 0 0 0-3.699 13.402 16.678 16.678 0 0 0 7.75 11.543zm9.031.45a1.043 1.043 0 0 0 1.043-1.044V38.164v.004a5.58 5.58 0 0 0 4.512-5.469 1.043 1.043 0 1 0-2.086 0 3.49 3.49 0 0 1-6.977 0 1.043 1.043 0 1 0-2.086 0 5.577 5.577 0 0 0 4.531 5.47v10.104-.004c0 .567.45 1.028 1.012 1.043zm0-34.595a1.043 1.043 0 0 0 1.043-1.043V9.456a1.04 1.04 0 0 0-1.043-1.039 1.04 1.04 0 0 0-1.04 1.04v4.218a1.037 1.037 0 0 0 .99 1.043zm20.43 20.47h4.168-.004a1.04 1.04 0 1 0 0-2.083H62.79h.004a1.04 1.04 0 1 0 0 2.082zm-45.176 0h4.258a1.042 1.042 0 0 0 0-2.082h-4.262a1.04 1.04 0 1 0 0 2.082zm39.176-14.48c.277.003.543-.106.738-.302l2.98-2.98c.196-.195.31-.461.31-.738s-.114-.543-.31-.739a1.037 1.037 0 0 0-1.468 0l-2.988 2.989h-.004a1.045 1.045 0 0 0 0 1.468c.199.196.465.305.742.301zM24.855 52.655a1.04 1.04 0 0 0 .727-.312l2.988-2.98h.004a1.043 1.043 0 0 0-1.492-1.446l-2.981 2.98.004-.004a1.04 1.04 0 1 0 .738 1.781zm34.188-.312a1.045 1.045 0 0 0 1.469 0 1.045 1.045 0 0 0 0-1.47l-2.98-2.956a1.042 1.042 0 1 0-1.481 1.469zM27.082 20.406c.2.195.465.304.742.3.278.004.543-.105.738-.3a1.045 1.045 0 0 0 0-1.47l-2.988-2.987a1.037 1.037 0 0 0-1.469 0c-.199.195-.308.46-.308.738s.11.543.308.738z"></path></g></g></svg>